<?xml version="1.0" encoding="UTF-8"?> <!-- Generator: Adobe Illustrator 25.2.1, SVG Export Plug-In . SVG Version: 6.00 Build 0) --> <svg xmlns="http://www.w3.org/2000/svg" xmlns:xlink="http://www.w3.org/1999/xlink" version="1.1" id="Слой_1" x="0px" y="0px" viewBox="0 0 72 72" style="enable-background:new 0 0 72 72;" xml:space="preserve"> <style type="text/css"> .st0{fill:#1DA64B;} .st1{fill:#E9E859;} .st2{fill:#72C2EC;} .st3{fill:#231F20;} </style> <g> <path class="st0" d="M35.3,51.4c-1.2,0-2.2-1-2.2-2.2V29.3c0-0.8,0.5-1.6,1.2-2l16.8-8.3c0.3-0.2,0.6-0.2,1-0.2 c0.3,0,0.7,0.1,1,0.2l16.8,8.3c0.7,0.4,1.2,1.1,1.2,2v19.9c0,1.2-1,2.2-2.2,2.2H35.3z"></path> <path class="st1" d="M3.4,51.4c-1.2,0-2.2-1-2.2-2.2V33.7c0-0.7,0.3-1.3,0.9-1.7l8-5.8c0.4-0.3,0.8-0.4,1.3-0.4 c0.5,0,0.9,0.2,1.3,0.4l8,5.8c0.6,0.4,0.9,1.1,0.9,1.7v15.6c0,1.2-1,2.2-2.2,2.2H3.4z"></path> <path class="st2" d="M19.3,51.4c-1.2,0-2.2-1-2.2-2.2V38.1c0-0.7,0.3-1.3,0.9-1.7l8-5.9c0.4-0.3,0.8-0.4,1.3-0.4s0.9,0.2,1.3,0.4 l8,5.9c0.6,0.4,0.9,1.1,0.9,1.7v11.2c0,1.2-1,2.2-2.2,2.2L19.3,51.4L19.3,51.4z"></path> <path class="st3" d="M72,29.3v19.9c0,1.7-1.4,3.2-3.2,3.2H3.4c-1.7,0-3.2-1.4-3.2-3.2V33.7c0-1,0.5-2,1.3-2.6l8-5.8 c1.1-0.8,2.6-0.8,3.7,0l8,5.8c0.3,0.2,0.6,0.5,0.8,0.9c0,0.1,0.1,0.1,0.2,0l3.3-2.4c1.1-0.8,2.6-0.8,3.8,0l2.8,2.1 c0.1,0.1,0.2,0,0.2-0.1v-2.3c0-1.2,0.7-2.3,1.8-2.8l16.7-8.3c0.9-0.4,1.9-0.4,2.8,0l16.8,8.3C71.3,27,72,28.1,72,29.3z M22.6,34.1 c0,0-0.1,0.1-0.1,0.1v15c0,0.4-0.1,0.7-0.2,1.1c0,0.1,0,0.2,0.2,0.2h9.7c0.1,0,0.2-0.1,0.2-0.2c-0.1-0.3-0.2-0.7-0.2-1.1v-15 c0-0.1,0-0.1-0.1-0.1l-4-3c-0.2-0.2-0.5-0.3-0.8-0.3s-0.5,0.1-0.8,0.2L22.6,34.1z M36.6,38.1c0-0.4-0.2-0.8-0.5-1l-1.9-1.4 c-0.1-0.1-0.2,0-0.2,0.1v13.4c0,0.7,0.5,1.2,1.1,1.3c0.8,0.1,1.5-0.5,1.5-1.3V38.1z M19.5,50.5c0.7-0.1,1.1-0.7,1.1-1.3V35.8 c0-0.1-0.1-0.1-0.2-0.1l-1.9,1.4c-0.3,0.2-0.5,0.6-0.5,1v11.2C18.1,50,18.7,50.7,19.5,50.5z M3.4,50.6h12.8c0.1,0,0.2-0.1,0.2-0.2 c-0.1-0.3-0.2-0.7-0.2-1.1V38.1c0-1,0.5-2,1.3-2.6l3-2.2c0.1,0,0.1-0.1,0.1-0.2c-0.1-0.2-0.2-0.3-0.4-0.5l-8-5.8 c-0.2-0.2-0.5-0.2-0.8-0.2c-0.3,0-0.5,0.1-0.8,0.2l-7.9,5.8c-0.3,0.2-0.5,0.6-0.5,1v15.6C2.1,50,2.7,50.6,3.4,50.6z M70.1,29.3 c0-0.5-0.3-0.9-0.7-1.2l-16.7-8.3c-0.2-0.1-0.4-0.1-0.6-0.1c-0.2,0-0.4,0-0.6,0.1l-16.8,8.3c-0.4,0.2-0.7,0.7-0.7,1.2v3.9 c0,0.1,0,0.1,0.1,0.1l3.1,2.3c0.8,0.6,1.3,1.6,1.3,2.6v11.2c0,0.4-0.1,0.7-0.2,1.1c0,0.1,0,0.2,0.2,0.2h30.4c0.7,0,1.3-0.6,1.3-1.3 L70.1,29.3L70.1,29.3z"></path> <path class="st3" d="M47.3,36h2v-2.6h1.7v6.5h-1.7v-2.4h-2v2.4h-1.7v-6.4h1.7V36z M67.3,33.5h-1.7v4.9H64v-4.9h-1.7v4.9h-1.6v-4.9 h-1.7v6.5h8.2L67.3,33.5L67.3,33.5z M58.5,44.8c0,1.9-1.5,3.4-3.4,3.4c-1.8,0-3.4-1.5-3.4-3.4c0-1.8,1.5-3.4,3.4-3.4 C56.9,41.5,58.5,43,58.5,44.8z M56.8,44.8c0-1-0.8-1.7-1.7-1.7c-1,0-1.7,0.8-1.7,1.7c0,1,0.8,1.7,1.7,1.7 C56,46.5,56.8,45.8,56.8,44.8z M65.7,41.5l-2.6,3l-2.6-3h-1.6v6.5h1.7v-3.7l2.4,2.8l2.4-2.8v3.7h1.7v-6.5H65.7z M54.6,33.5 l-2.9,6.5h1.7l0.2-0.5h2.8l0.2,0.5h1.7l-2.9-6.5H54.6z M54.3,37.9l0.7-1.7l0.7,1.7H54.3z M46.4,48.5v-0.4h3.8v0.4h1.4v-0.4v-1.5 h-0.7l-2.2-5h-0.8l-2.2,5H45v1.5v0.4H46.4z M48.3,44.5l0.9,2.1h-1.8L48.3,44.5z"></path> </g> </svg> 