<?xml version="1.0" encoding="UTF-8" standalone="no"?>
<svg
   version="1.0"
   width="1024.000000pt"
   height="1024.000000pt"
   viewBox="0 0 1024.000000 1024.000000"
   preserveAspectRatio="xMidYMid meet"
   id="svg16"
   sodipodi:docname="export28.svg"
   inkscape:version="1.4.2 (f4327f4, 2025-05-13)"
   inkscape:export-filename="export28.png"
   inkscape:export-xdpi="96"
   inkscape:export-ydpi="96"
   xmlns:inkscape="http://www.inkscape.org/namespaces/inkscape"
   xmlns:sodipodi="http://sodipodi.sourceforge.net/DTD/sodipodi-0.dtd"
   xmlns="http://www.w3.org/2000/svg"
   xmlns:svg="http://www.w3.org/2000/svg">
  <defs
     id="defs16">
    <rect
       x="555.85042"
       y="515.4998"
       width="36.233213"
       height="162.22598"
       id="rect19" />
    <rect
       x="555.02694"
       y="635.72819"
       width="78.2308"
       height="122.69883"
       id="rect18" />
    <rect
       x="555.02694"
       y="635.72819"
       width="78.2308"
       height="122.69883"
       id="rect20" />
  </defs>
  <sodipodi:namedview
     id="namedview16"
     pagecolor="#ffffff"
     bordercolor="#000000"
     borderopacity="0.25"
     inkscape:showpageshadow="2"
     inkscape:pageopacity="0.0"
     inkscape:pagecheckerboard="0"
     inkscape:deskcolor="#d1d1d1"
     inkscape:document-units="pt"
     showgrid="false"
     inkscape:zoom="0.60717773"
     inkscape:cx="473.50221"
     inkscape:cy="573.96703"
     inkscape:window-width="1920"
     inkscape:window-height="1009"
     inkscape:window-x="-8"
     inkscape:window-y="-8"
     inkscape:window-maximized="1"
     inkscape:current-layer="svg16" />
  <metadata
     id="metadata1">
Created by potrace 1.15, written by Peter Selinger 2001-2017
</metadata>
  <g
     id="g16"
     transform="matrix(0.62002421,0,0,0.59995629,372.41984,191.97091)"
     style="fill:#9bd3f3;fill-opacity:1">
    <path
       d="m 237.4,634.1 c -13.6,2.3 -28.5,8.5 -39,16.2 -7.7,5.7 -10.4,10 -11.1,17.7 -0.6,5.9 -0.5,6 3.4,10 3.2,3.1 4.8,4 7.6,4 4,0 9.3,-3.7 6.7,-4.7 -0.8,-0.4 -3,-2.1 -4.7,-3.9 -13.3,-13.2 14.8,-31.4 48.5,-31.4 9.5,0 14.6,1.7 16.3,5.4 2.8,6 -2.8,16.2 -12.1,22.4 -6.4,4.3 -20.8,9.9 -27.8,10.9 -5.5,0.8 -5.8,1.5 4.3,-15.8 4.1,-7.1 7.5,-13.3 7.5,-13.8 0,-0.5 -1,-1.3 -2.2,-1.7 -1.8,-0.5 -2.9,0.1 -5.6,3.2 -13.2,15 -31.2,52 -31.2,64.2 0,7.6 4.8,11.8 15.2,13.2 11.3,1.7 24.5,-1.4 34.7,-8 9.4,-6.1 15.2,-15.8 13.6,-23 -0.9,-3.9 -7.1,-9.8 -13.5,-12.8 -3.2,-1.5 -4.8,-2.7 -4,-3 0.8,-0.3 4.7,-2 8.7,-3.9 12.6,-6 20.4,-15.4 21.9,-26.5 0.6,-5 -2.4,-11.8 -6.8,-15.1 -5.4,-4 -18.6,-5.6 -30.4,-3.6 z m 5.1,56.8 c 7,3.1 9.5,5.7 9.5,9.9 0,9.9 -13.3,18.3 -31.5,19.9 -8.9,0.7 -12.5,-0.9 -12.5,-5.5 0,-5.4 5.7,-21.8 8.9,-25.6 2.3,-2.7 18.5,-1.9 25.6,1.3 z"
       id="path14"
       style="fill:#9bd3f3;stroke:none;stroke-width:0.1;fill-opacity:1" />
    <path
       d="m 342.9,672.4 c -6.1,2.1 -10.6,5.5 -15,10.9 -4.4,5.6 -7.2,10.6 -8.2,14.7 -1.2,5.2 -15.9,16 -25.5,19 -5.4,1.7 -7.2,1.8 -9.9,0.9 -4.4,-1.4 -6.7,-5.8 -5.9,-11.3 2,-12.8 22.4,-33.3 28.3,-28.4 1.9,1.5 0.9,5.4 -2.6,9.8 -4.3,5.6 -4.5,6 -1.9,6 3.2,0 10.5,-7.1 11.6,-11.3 1.9,-7.1 -1.9,-10.7 -11.1,-10.7 -6.8,0.1 -12.1,2.6 -18.1,8.6 -13.6,13.6 -18.8,31.2 -11.3,38.2 3.3,3.1 9.1,5.2 14.3,5.2 6.3,0 19.2,-6.2 25.9,-12.4 2.7,-2.5 5,-4.6 5,-4.6 0.1,0 0.2,1.7 0.3,3.7 0.1,2.1 0.6,4.9 1.2,6.4 1.5,3.5 8.8,6.9 14.8,6.9 6.8,0 17.8,-5.5 25.3,-12.6 5.6,-5.4 7.3,-5.8 4.8,-1.2 -1.4,2.6 0.5,10 3.2,12.4 1.1,1 4.2,1.9 7.3,2.2 6.6,0.5 13.8,-2.4 20.8,-8.7 2.5,-2.2 4.9,-4.1 5.2,-4.1 0.3,0 0.6,1.8 0.6,4 0,3.4 0.4,4.2 3,5.5 6.2,3.2 12.7,0.8 22.2,-8.3 6.3,-6 7.1,-5.5 3.3,2.6 -2.3,4.9 -2.9,5.5 -10.2,8.8 -28.1,13 -30.6,14.5 -32.9,20 -3,7.3 -0.4,16.6 5.1,18 3.9,1 10.5,-0.4 15.1,-3.1 6.7,-3.9 18.4,-17.2 23.4,-26.5 4.1,-7.5 5.1,-8.7 10.8,-12.1 3.4,-2.1 8.3,-5.5 10.8,-7.5 l 4.6,-3.8 -0.7,3.7 c -1,5 1.2,8.1 6.5,9.5 6.9,1.7 12.1,-0.8 21.1,-10.1 2.2,-2.3 3.7,-3.4 3.4,-2.5 -0.5,1.2 -0.2,1.8 0.6,1.8 1,0.1 0.9,0.5 -0.3,1.4 -1.5,1.1 -1.6,1.8 -0.7,4.3 2,5.9 10.7,7.1 18,2.4 8.4,-5.4 19.9,-19.4 19.9,-24.4 0,-0.8 -4.5,3.2 -10.1,8.8 -13.7,13.9 -22,17.5 -20.6,8.8 0.6,-3.4 5.6,-14.3 9.5,-20.6 1.7,-2.8 1.6,-2.9 -0.7,-4.8 -1.3,-1.1 -2.9,-1.6 -3.6,-1.1 -0.7,0.4 -4,4.3 -7.3,8.8 -7,9.3 -18.1,20.1 -21.6,21 -5.9,1.4 -7.8,-1.5 -5.7,-8.6 2.2,-7.3 15.9,-23.3 23.3,-27.1 3.7,-1.9 9.2,-2.5 12.2,-1.3 0.9,0.3 2.6,2.4 3.8,4.5 1.2,2.1 2.5,3.9 2.9,3.9 1.4,0 2.8,-5.9 2,-8.6 -1.3,-4.8 -5.3,-6.9 -13.4,-6.9 -5.7,0 -8.2,0.5 -12,2.4 -6,3.1 -14.9,11.8 -19.8,19.3 -2.1,3.3 -5.7,7.7 -8.1,9.9 -5.5,5.1 -16.2,12.3 -16.5,11.2 -0.2,-0.5 1.9,-5.9 4.7,-12.1 5,-11.3 5.3,-13.7 2,-14.7 -2,-0.6 -7,1 -7,2.4 0,1.5 -10.6,14.8 -15.1,18.8 -8.7,7.9 -13.3,9.4 -14.5,4.8 -2.5,-10 19.7,-36.5 30.5,-36.5 3.7,0 7.3,2.4 9.2,6.3 2.4,4.6 4.3,4.4 4.7,-0.4 0.9,-10 -13.3,-15.2 -25.7,-9.4 -7.1,3.3 -16.7,13.3 -21.4,22.2 -10.5,20 -39.1,32.8 -32.1,14.5 2.1,-5.5 15.3,-19.3 20.6,-21.5 4.5,-1.9 8.8,-7.1 8.8,-10.7 0,-4.8 -3.8,-6.4 -16.1,-6.8 -11.3,-0.4 -14.9,0.5 -14.9,3.7 0,3.8 2.3,4.4 12.1,3.1 7.7,-1 9.4,-1 10.5,0.2 1.2,1.2 0.4,2.1 -5.7,6.3 -4,2.7 -10.3,7.7 -14,11.2 -7.4,6.8 -9,7.6 -8.1,4.1 0.5,-2.1 0.4,-2.2 -1.5,-0.8 -1.1,0.8 -5,4 -8.7,7.1 -8.4,7.1 -16.8,11.4 -22.3,11.4 -5.2,0 -7.3,-1.9 -8,-7.3 -0.5,-3.5 -0.3,-4.3 1.3,-4.7 1.1,-0.3 6.5,-2.8 12,-5.6 11.4,-5.5 17.5,-11.1 19.5,-17.8 1,-3.5 1,-4.4 -0.5,-6.6 -1.9,-2.9 -7.2,-5.5 -10.8,-5.5 -1.3,0.1 -3.9,0.7 -5.9,1.4 z m 9.2,5.6 c 5.9,3.2 -3.8,14.3 -17.8,20.4 -5.9,2.6 -6.6,1.9 -3.9,-3.9 2.9,-6.2 9.4,-13.7 13.8,-15.8 3.9,-1.9 5.3,-2.1 7.9,-0.7 z m 71.3,54.2 c -2.7,5.2 -8.9,14 -12.5,17.6 -4.2,4.3 -12.3,8.4 -15.7,8 -2.3,-0.3 -2.7,-0.7 -2.6,-3.4 0.2,-4 3.6,-8.6 8.8,-12.1 3.6,-2.4 22.6,-13.2 23.4,-13.3 0.1,0 -0.5,1.5 -1.4,3.2 z"
       id="path15"
       style="fill:#9bd3f3;stroke:none;stroke-width:0.1;fill-opacity:1" />
    <path
       d="m 633.5,672.9 c -3.9,2.4 -6.9,5.8 -8.5,9.8 -1.7,4.5 -0.9,15.6 1.3,18.1 0.9,1 1.7,2.4 1.7,3.1 0,1.9 -8.8,10.8 -12,12.1 -6.4,2.6 -9.9,-1.2 -7.9,-8.4 2.4,-8.3 -0.1,-10 -5.3,-3.5 -3.8,4.7 -8.8,7.9 -8.8,5.6 0,-0.8 0.9,-2.6 2,-4 4,-5.1 7.3,-13.8 7.8,-20.8 0.4,-6.2 0.3,-6.9 -2.1,-9.3 -1.8,-1.7 -3.7,-2.6 -5.9,-2.6 -4.4,0 -14.6,4.9 -19.6,9.4 -2.2,2 -4.2,3.6 -4.5,3.6 -0.3,0 0.5,-2.3 1.8,-5.2 1.8,-3.8 2.1,-5.6 1.4,-7 -1.2,-2.3 -4.1,-2.3 -6.8,-0.1 -2.4,2.1 -10.9,20.4 -22.6,48.7 -10,24.5 -12,30.5 -11.1,34 0.7,3 6.4,6.6 7,4.4 5.1,-19.1 13.4,-42.7 16.5,-46.8 1,-1.5 3.1,-5.1 4.6,-8 4.9,-9.6 20.5,-23.5 28.7,-25.5 2.4,-0.6 2.9,-0.3 3.8,2.1 3.1,8 -8.2,28.4 -15.6,28.4 -1.3,0 -2.4,0.6 -2.4,1.2 0,0.9 -0.3,0.8 -1,-0.2 -0.5,-0.8 -1.2,-1.1 -1.5,-0.8 -1.4,1.3 0.7,2.8 3.1,2.2 3.3,-0.8 3,0.2 -0.6,2.1 -4.3,2.2 -11.3,2 -13.5,-0.5 -1,-1.1 -2.2,-2 -2.6,-2 -1.8,0 -3,4 -1.9,6 3.8,7 17.4,6.4 26.5,-1.2 2.2,-1.8 4.7,-2.7 9.3,-3.2 6.1,-0.7 6.2,-0.6 6.2,1.7 0,5.2 7.7,8.1 14.3,5.3 3.4,-1.4 9.5,-6 17,-12.9 2,-1.8 4.1,-2.7 6.3,-2.7 4,0 4.1,0.4 1.3,8.7 -2.1,6.2 -2.1,6.4 -0.3,8.4 1.6,1.7 2.6,2 6.2,1.5 5.9,-0.8 10,-3.1 15,-8.4 4,-4.2 4.3,-4.4 3.7,-1.9 -1,3.9 1.6,7.4 6,8.3 4.9,0.9 12.5,-3 19.8,-10.1 3.1,-3.1 5.7,-5.2 5.7,-4.7 0,2 -4.9,11.8 -6.7,13.5 -1.1,0.9 -7.5,4.2 -14.2,7.2 -15.4,6.9 -20.6,9.9 -23.2,13.6 -4.3,6.1 -3.4,14.8 1.9,18.9 6.8,5.4 21.3,-1.3 30.8,-14.1 2.1,-2.9 5.8,-9 8.3,-13.7 4.2,-7.8 5.1,-8.9 11.1,-12.5 3.6,-2.1 8.5,-5.5 11,-7.5 2.4,-2.1 4.6,-3.7 4.9,-3.7 0.2,0 0.5,1.5 0.6,3.2 0.5,6.4 6.3,11.5 13,11.5 4.7,0 11.4,-3.7 16.7,-9.4 4.6,-4.8 4.9,-5 8.8,-4.3 l 4,0.7 -0.2,5.1 c -0.3,5.1 -0.3,5.2 3.2,6.3 3.5,1.1 3.5,1.1 10.2,-5.4 4,-3.8 9.9,-11.3 14.4,-18.3 4.3,-6.6 8,-11.9 8.4,-11.9 0.3,0 -1.2,5.4 -3.4,12 -3.9,11.3 -4,12.2 -2.6,14.8 1,1.7 2.6,2.8 4.2,3 2.4,0.3 3.6,-0.9 10.7,-11 8.3,-11.8 17.8,-22.8 16.5,-19.3 -0.3,1.1 -1.8,5.1 -3.1,9 -5.3,15 -4,24.3 3.7,26.6 6.6,2 11.2,0 19.6,-8.5 6.8,-6.8 13.3,-17 11.9,-18.4 -0.4,-0.4 -5,3.9 -10.3,9.5 -5.4,5.6 -10.9,10.6 -12.4,11.2 -3.5,1.3 -7.4,0 -8.3,-2.9 -1.4,-4.5 3.5,-21 9.5,-31.7 1.7,-2.9 2.8,-5.8 2.5,-6.3 -0.3,-0.5 -2.2,-1.2 -4.1,-1.6 -3.3,-0.6 -4,-0.3 -8.6,4.2 -2.7,2.7 -9.2,10.5 -14.5,17.4 -5.2,6.9 -9.9,12.6 -10.3,12.8 -1.3,0.5 0.4,-4.8 6.2,-18.9 5,-12.4 5.1,-12.8 3.5,-15.3 -1,-1.4 -2.6,-2.6 -3.6,-2.6 -2.6,0 -5.2,3.3 -15.9,20.3 -9.4,14.8 -18.8,26.5 -20.3,25 -0.4,-0.4 -0.1,-3.3 0.7,-6.3 0.8,-3 1.4,-6.5 1.4,-7.8 0,-2.3 0,-2.3 -4.4,0.8 -4.6,3.3 -9.2,3.8 -8.9,1 0.1,-0.8 1.1,-4.1 2.2,-7.2 3.8,-10.3 2.2,-20.2 -3.8,-23.2 -1.6,-0.9 -5.1,-1.6 -7.6,-1.6 -3.9,0 -5.2,0.5 -7.5,3 -3.3,3.5 -4.4,8.2 -3,12.8 1.3,4.8 5.6,11.7 8.6,14.1 l 2.7,2.1 -4.2,5.4 c -6.1,7.8 -12.9,10.7 -16.4,6.8 -3.4,-3.7 -0.9,-15.3 4.7,-22.7 3.1,-4.1 3.3,-6.1 0.5,-7.6 -2.9,-1.5 -6,1.6 -10.1,9.8 -2.3,4.7 -4.5,7.3 -8.6,10.5 -5.7,4.3 -14.2,9.8 -15.3,9.8 -0.9,0 6.9,-19.7 8.9,-22.8 1.5,-2.3 1.4,-2.5 -0.3,-3.8 -4.1,-3 -7,-1.4 -12.8,7.3 -5.2,8 -16.3,18.9 -20.1,19.9 -4,1 -5.6,-0.1 -5.6,-3.8 0,-8.7 14,-27.7 24.2,-32.9 6.7,-3.4 13.7,-1.6 15.7,4.1 0.9,2.7 1.3,3 2.9,2.1 3,-1.6 3.4,-4 1.4,-7.5 -3.9,-6.8 -15.2,-8.7 -24.9,-4.2 -7.6,3.6 -16.6,13.4 -21.5,23.3 -2.9,6.1 -5.4,9.6 -9.8,13.7 -5.8,5.3 -9.5,7.4 -10.8,6.2 -0.3,-0.4 -0.1,-2.7 0.6,-5.1 1.7,-6.3 1.5,-8.9 -0.8,-11 -1.9,-1.7 -1.9,-1.8 0.4,-5.9 5.5,-9.5 5.5,-18.2 -0.1,-22.5 -3.3,-2.7 -10.7,-2.8 -14.8,-0.2 z m 12.3,7.8 c 0.7,9.7 -8.7,21 -13.6,16.1 -0.7,-0.7 -1.2,-1.9 -1.2,-2.7 0,-1.2 0.3,-1.1 1.3,0.3 1.1,1.5 1.2,1.1 0.9,-2.6 -0.4,-4 -0.5,-4.1 -1.5,-1.8 -0.8,2 -1.1,2.1 -1.4,0.8 -0.7,-2.8 3.8,-11.8 6.6,-13.3 1.4,-0.8 4,-1.4 5.6,-1.2 2.8,0.2 3,0.5 3.3,4.4 z m 108.9,-1.1 c 2.1,2.1 2.5,3.2 2.1,6.7 -0.3,2.3 -1.4,6.2 -2.4,8.7 l -2,4.4 -4.2,-5.9 c -5.1,-7.1 -5.6,-11.3 -1.6,-14.4 3.5,-2.7 4.9,-2.6 8.1,0.5 z m -70.3,55.6 c -3.8,7.4 -14.4,18.1 -20.6,20.8 -5.8,2.5 -7.8,2.1 -7.8,-1.7 0,-5.9 8.4,-13.6 22.4,-20.4 4.4,-2.2 8.1,-3.9 8.3,-3.9 0.2,0 -0.9,2.4 -2.3,5.2 z"
       id="path16"
       style="fill:#9bd3f3;stroke:none;stroke-width:0.1;fill-opacity:1" />
  </g>
  <g
     id="g2"
     style="fill:#1f99da;fill-opacity:1">
    <path
       d="m 171.96436,437.48466 v 9.62459 h 9.0491 8.98582 l -0.18984,-9.62459 -0.18984,-9.6246 h -8.79598 -8.85926 z"
       id="path2"
       style="fill:#1f99da;stroke:none;stroke-width:0.0626845;fill-opacity:1" />
    <path
       d="m 195.37811,437.48466 v 9.62459 h 9.17566 9.17566 v -9.62459 -9.6246 h -9.17566 -9.17566 z"
       id="path3"
       style="fill:#1f99da;stroke:none;stroke-width:0.0626845;fill-opacity:1" />
    <path
       d="m 195.37811,462.01185 v 9.31412 h 9.3655 9.30222 l -0.18984,-9.31412 -0.18984,-9.31412 h -9.17566 -9.11238 z"
       id="path5"
       style="fill:#1f99da;stroke:none;stroke-width:0.0626845;fill-opacity:1" />
    <path
       id="path1"
       style="fill:#1f99da;fill-opacity:1;stroke:none;stroke-width:0.0626845"
       d="m 192.0871,349.68327 c -0.12656,0 -4.61935,3.97414 -9.99818,8.81749 -5.44212,4.84334 -19.93333,17.75942 -32.27301,28.75008 -12.33968,10.92858 -27.14668,24.09224 -32.90519,29.18396 -5.75852,5.09172 -17.845697,15.83364 -26.894794,23.84379 -9.049098,7.94805 -16.516063,14.71674 -16.642624,15.02721 -0.126561,0.24838 2.531402,3.22841 5.885263,6.64359 l 6.138323,6.20972 5.442177,-5.21554 5.50521,-5.27831 0.190025,51.22768 0.126067,51.22769 H 282.38682 c 0.0738,-0.22831 0.15895,-0.46184 0.25676,-0.70038 0.16279,-0.39699 0.26774,-0.80355 0.30869,-1.23158 0.0125,-0.13132 0.0268,-0.25966 0.0435,-0.38566 -0.16373,-0.9532 -0.18171,-1.93359 -0.16777,-2.91703 0.027,-1.00937 0.0552,-2.01936 0.0741,-3.02891 0.0101,-0.564 0.0151,-1.12776 0.0195,-1.69182 0.004,-0.43196 0.0325,-0.83915 0.0834,-1.22157 h -0.30033 l 0.12699,-50.42088 0.19003,-50.35813 9.04897,0.12461 c 4.93587,0.0621 8.98595,-0.1243 8.98595,-0.43477 0,-0.31048 -6.77175,-6.52014 -14.9982,-13.90935 -8.28973,-7.32711 -16.57916,-14.71661 -18.35102,-16.45525 l -3.35372,-3.04256 V 393.95628 373.52797 H 252.8362 241.25663 l -0.31702,9.68615 -0.3161,9.68705 -24.17324,-21.60895 C 203.16148,359.37014 192.15038,349.62117 192.0871,349.68327 Z m 0.44308,22.29204 2.21544,2.11114 c 1.20233,1.1177 14.17425,12.79122 28.85531,25.89309 14.61777,13.10187 30.05862,26.88701 34.29841,30.67476 l 7.71971,6.83005 v 53.83637 53.89731 H 227.33472 189.05038 V 519.57326 493.99034 H 168.48394 147.9175 v 25.58292 25.64477 h -18.03492 -18.03492 v -50.48274 c 0,-44.21104 0.12657,-50.60638 0.94921,-51.78617 0.56952,-0.74513 11.58081,-10.68025 24.55329,-22.10558 12.90921,-11.42532 30.62785,-27.07342 39.36054,-34.83519 z M 639.60626,559.634 c -0.0169,0.16264 -0.0358,0.32566 -0.0584,0.48663 h 0.0584 z" />
    <rect
       style="fill:#1f99da;fill-opacity:1;stroke-width:0.812877;paint-order:stroke markers fill"
       id="rect29"
       width="649.65338"
       height="14.66432"
       x="265.43369"
       y="545.41467" />
  </g>
  <ellipse
     style="fill:#1da64b;fill-opacity:1;stroke-width:0.727449;paint-order:stroke markers fill"
     id="path4"
     cx="180.5764"
     cy="462.24365"
     rx="9.8839998"
     ry="10.306393" />
  <ellipse
     style="fill:#1da64b;fill-opacity:1;stroke-width:0.663165;paint-order:stroke markers fill"
     id="ellipse17"
     cx="253.45457"
     cy="356.69162"
     rx="9.0105648"
     ry="9.3956318" />
  <text
     xml:space="preserve"
     style="font-size:95.9185px;font-family:'Nirmala Text';-inkscape-font-specification:'Nirmala Text';text-align:start;writing-mode:lr-tb;direction:ltr;text-anchor:start;fill:#1da64b;fill-opacity:1;stroke-width:1.28664;paint-order:stroke markers fill"
     x="338.33942"
     y="507.45062"
     id="text2"
     transform="scale(0.95882151,1.042947)"><tspan
       sodipodi:role="line"
       id="tspan2"
       style="font-size:95.9185px;fill:#1da64b;fill-opacity:1;stroke-width:1.28665"
       x="338.33942"
       y="507.45062">АО &quot;ГЖЭУ 4&quot;</tspan></text>
</svg>
